<svg width="20" height="20" viewBox="0 0 20 20" fill="none" xmlns="http://www.w3.org/2000/svg">
<path d="M11.8917 2.96899C11.8917 1.92387 11.0444 1.07666 9.99933 1.07666C8.95421 1.07666 8.107 1.92387 8.107 2.96899V7.27914C8.107 8.38277 7.12949 9.23553 6.24071 9.8898C5.46077 10.464 4.95438 11.3881 4.95312 12.4306V15.1043C4.95312 15.5585 5.10769 15.9991 5.39139 16.3537L7.30749 18.7488C7.41672 18.8854 7.47623 19.055 7.47623 19.2299V19.3691C7.47623 19.7175 7.75864 19.9999 8.107 19.9999C8.45537 19.9999 8.73778 19.7175 8.73778 19.3691V18.9021C8.73778 18.6528 8.65294 18.4109 8.49721 18.2162L6.65294 15.9109C6.36924 15.5563 6.21468 15.1157 6.21468 14.6615V12.4306C6.21468 12.0924 6.3034 11.7749 6.45884 11.5002C7.00274 10.5388 8.107 11.4337 8.107 12.5383V14.3229C8.107 14.6713 8.38941 14.9537 8.73778 14.9537C9.08615 14.9537 9.36855 14.6713 9.36855 14.3229V2.96899C9.36855 2.6206 9.65094 2.33821 9.99933 2.33821C10.3477 2.33821 10.6301 2.6206 10.6301 2.96899V7.5714C10.6301 8.11795 10.9959 8.59688 11.5232 8.74071L12.0841 8.89372C12.4202 8.98541 12.767 8.78721 12.8586 8.45107C12.9502 8.11491 12.7519 7.76815 12.4158 7.67663L12.381 7.66718C12.0907 7.58814 11.8892 7.3244 11.8894 7.02349L11.8917 2.96899Z" fill="#50505A"/>
<path d="M15.2928 9.11817C15.3844 8.78207 15.1861 8.43536 14.85 8.34377C14.5139 8.25219 14.1672 8.45041 14.0756 8.78651C13.9841 9.12262 14.1823 9.46933 14.5184 9.56091C14.8545 9.6525 15.2012 9.45428 15.2928 9.11817Z" fill="#50505A"/>
<path d="M16.5116 9.44679C16.42 9.78278 16.618 10.1294 16.954 10.2212L17.0399 10.2446C17.3529 10.3301 17.5701 10.6145 17.5701 10.939V15.3385C17.5701 15.7713 17.4297 16.1923 17.1701 16.5385L15.8985 18.234C15.7552 18.425 15.6777 18.6574 15.6777 18.8962V19.3691C15.6777 19.7175 15.9601 19.9999 16.3085 19.9999C16.6569 19.9999 16.9393 19.7175 16.9393 19.3691V19.2113C16.9393 19.0406 16.9946 18.8746 17.097 18.7381L18.4316 16.9586C18.6913 16.6124 18.8316 16.1914 18.8316 15.7586V10.3925C18.8316 9.82163 18.4495 9.3214 17.8987 9.17124L17.286 9.0042C16.9499 8.91259 16.6032 9.11074 16.5116 9.44679Z" fill="#50505A"/>
<path d="M3.26866 1.1308C3.40059 0.998868 3.40059 0.784966 3.26866 0.653035L3.06159 0.445958C2.81529 0.199662 2.41597 0.199662 2.16967 0.445958L1.44649 1.16914C0.800787 1.81484 0.800786 2.86173 1.44649 3.50743L2.16967 4.23061C2.41597 4.47691 2.81529 4.47691 3.06159 4.23061L3.26866 4.02354C3.40059 3.8916 3.40059 3.6777 3.26866 3.54577C3.05584 3.33295 3.20657 2.96906 3.50755 2.96906H3.84538C4.10924 2.96906 4.32314 2.75516 4.32314 2.4913V2.18527C4.32314 1.92141 4.10924 1.70751 3.84537 1.70751H3.50754C3.20657 1.70751 3.05584 1.34362 3.26866 1.1308Z" fill="#50505A"/>
<path d="M5.58398 2.33836C5.58398 2.68672 5.86639 2.96913 6.21476 2.96913C6.56313 2.96913 6.84554 2.68672 6.84554 2.33836C6.84554 1.98999 6.56313 1.70758 6.21476 1.70758C5.86639 1.70758 5.58398 1.98999 5.58398 2.33836Z" fill="#50505A"/>
<path d="M16.7322 3.54577C16.6003 3.6777 16.6003 3.8916 16.7322 4.02354L16.9393 4.23061C17.1856 4.47691 17.5849 4.47691 17.8312 4.23061L18.5544 3.50743C19.2001 2.86173 19.2001 1.81484 18.5544 1.16914L17.8312 0.445959C17.5849 0.199663 17.1856 0.199662 16.9393 0.445959L16.7322 0.653035C16.6003 0.784966 16.6003 0.998868 16.7322 1.1308C16.945 1.34362 16.7943 1.70751 16.4933 1.70751H16.1555C15.8916 1.70751 15.6777 1.92141 15.6777 2.18527V2.4913C15.6777 2.75516 15.8916 2.96906 16.1555 2.96906H16.4933C16.7943 2.96906 16.945 3.33295 16.7322 3.54577Z" fill="#50505A"/>
<path d="M13.1543 2.33836C13.1543 2.68672 13.4367 2.96913 13.7851 2.96913C14.1334 2.96913 14.4158 2.68672 14.4158 2.33836C14.4158 1.98999 14.1334 1.70758 13.7851 1.70758C13.4367 1.70758 13.1543 1.98999 13.1543 2.33836Z" fill="#50505A"/>
</svg>
