<svg width="24" height="24" viewBox="0 0 24 24" fill="none" xmlns="http://www.w3.org/2000/svg">
<path d="M23.7771 17.9589C23.7771 17.8562 23.6816 17.8562 23.6816 17.7534C23.2996 16.9315 22.4402 15.9041 21.2943 14.774C20.7214 14.2603 20.4349 13.8493 20.2439 13.6438C19.9575 13.2329 19.9575 12.9247 20.053 12.5137C20.1485 12.2055 20.5304 11.6918 21.1988 10.7671C21.5808 10.2534 21.7718 9.94521 22.0582 9.63699C23.4906 7.58219 24.159 6.24657 23.968 5.63013L23.8726 5.5274C23.7771 5.42466 23.6816 5.32192 23.4906 5.32192C23.2996 5.21918 23.0131 5.21918 22.7267 5.32192H19.0981C19.0026 5.32192 19.0026 5.32192 18.8116 5.32192C18.7161 5.32192 18.6206 5.32192 18.6206 5.32192H18.5251H18.4296L18.3341 5.42465C18.2386 5.52739 18.2386 5.52739 18.2386 5.63013C17.8567 6.76027 17.3792 7.68492 16.9018 8.71232C16.6153 9.22602 16.3288 9.73973 16.0424 10.1507C15.7559 10.5616 15.5649 10.8699 15.3739 11.0753C15.1829 11.2808 14.992 11.3836 14.8965 11.589C14.801 11.6918 14.61 11.7945 14.61 11.6918C14.5145 11.6918 14.419 11.6918 14.419 11.589C14.3235 11.4863 14.228 11.3836 14.1326 11.2808C14.0371 11.1781 14.0371 10.9726 13.9416 10.7671C13.9416 10.5616 13.9416 10.3562 13.9416 10.2534C13.9416 10.1507 13.9416 9.84247 13.9416 9.63699C13.9416 9.32877 13.9416 9.12328 13.9416 9.02054C13.9416 8.71233 13.9416 8.30138 13.9416 7.89042C13.9416 7.47946 13.9416 7.17123 13.9416 6.96575C13.9416 6.76027 13.9416 6.45205 13.9416 6.24657C13.9416 5.93835 13.9416 5.73287 13.9416 5.63013C13.9416 5.52739 13.8461 5.32192 13.8461 5.21918C13.7506 5.11644 13.6551 5.01369 13.5596 4.91095C13.4641 4.80821 13.2731 4.80822 13.1777 4.70548C12.7002 4.60274 12.1273 4.5 11.4588 4.5C9.931 4.5 8.8806 4.60274 8.49864 4.80822C8.30766 4.91096 8.11668 5.0137 8.02119 5.21918C7.83021 5.42465 7.8302 5.5274 7.92569 5.5274C8.40314 5.63014 8.78511 5.83561 8.97609 6.14383L9.07159 6.34932C9.16708 6.45206 9.16706 6.65753 9.26255 6.96575C9.35804 7.27397 9.35804 7.58219 9.35804 7.99315C9.35804 8.60959 9.35804 9.22603 9.35804 9.63699C9.35804 10.1507 9.26255 10.4589 9.26255 10.7671C9.26255 11.0753 9.16708 11.2808 9.07159 11.3836C8.9761 11.589 8.97608 11.6918 8.88059 11.6918C8.88059 11.6918 8.88059 11.7945 8.7851 11.7945C8.68961 11.7945 8.59412 11.8973 8.40314 11.8973C8.30765 11.8973 8.11668 11.7945 8.02119 11.6918C7.83021 11.589 7.63923 11.3836 7.54374 11.1781C7.35276 10.9726 7.16177 10.6644 6.97079 10.2534C6.77981 9.84246 6.49333 9.43151 6.30235 8.81507L6.11138 8.40411C6.01589 8.19864 5.82491 7.78767 5.63393 7.27397C5.44295 6.76027 5.25197 6.34932 5.06098 5.83562C4.96549 5.63014 4.87002 5.52739 4.77453 5.42465H4.67903C4.67903 5.42465 4.58353 5.32192 4.48804 5.32192C4.39255 5.32192 4.29707 5.21918 4.20158 5.21918H0.763925C0.381964 5.21918 0.190986 5.32191 0.0954961 5.42465L0 5.5274C0 5.5274 0 5.63013 0 5.73287C0 5.83561 5.82684e-06 5.93835 0.0954961 6.14383C0.572947 7.3767 1.14589 8.60959 1.71883 9.84247C2.29177 10.9726 2.86472 12 3.24668 12.7192C3.72413 13.4384 4.10608 14.1575 4.58353 14.774C5.06098 15.3904 5.34745 15.8014 5.44294 16.0069C5.63392 16.2123 5.7294 16.3151 5.82489 16.4178L6.11138 16.726C6.30236 16.9315 6.58883 17.2397 6.97079 17.5479C7.35275 17.8562 7.8302 18.1644 8.30765 18.4726C8.7851 18.7808 9.35805 18.9863 9.93099 19.1918C10.5994 19.3973 11.1724 19.5 11.7453 19.3973H13.1777C13.4641 19.3973 13.6551 19.2945 13.8461 19.089L13.9416 18.9863C13.9416 18.8836 14.0371 18.8836 14.0371 18.7808C14.0371 18.6781 14.0371 18.5754 14.0371 18.3699C14.0371 17.9589 14.0371 17.6507 14.1326 17.3425C14.228 17.0343 14.2281 16.8288 14.3235 16.6233C14.419 16.4178 14.5145 16.3151 14.61 16.2123C14.7055 16.1096 14.801 16.0069 14.801 16.0069H14.8965C15.0874 15.9041 15.3739 16.0069 15.5649 16.2123C15.8514 16.4178 16.1378 16.726 16.3288 17.0343C16.5198 17.3425 16.8063 17.6507 17.1883 18.0616C17.5702 18.4726 17.8567 18.7808 18.0477 18.8836L18.3341 19.089C18.5251 19.1918 18.7161 19.2945 19.0026 19.3973C19.289 19.5 19.48 19.5 19.671 19.5L22.9177 19.3973C23.2041 19.3973 23.4906 19.2945 23.6816 19.1918C23.8726 19.0891 23.968 18.9863 23.968 18.7808C23.968 18.6781 23.968 18.4726 23.968 18.3699C23.7771 18.1644 23.7771 18.0616 23.7771 17.9589Z" fill="#282830"/>
</svg>
