<svg width="24" height="24" viewBox="0 0 24 24" fill="none" xmlns="http://www.w3.org/2000/svg">
<path d="M2.59193 11.6399L7.07508 13.4088L8.82273 19.3589C8.89872 19.761 9.35463 19.8414 9.65857 19.6002L12.1661 17.4292C12.394 17.1879 12.774 17.1879 13.0779 17.4292L17.561 20.8867C17.865 21.1279 18.3209 20.9671 18.3969 20.565L21.7402 3.67956C21.8162 3.27752 21.4363 2.87549 21.0564 3.03631L2.59193 10.5946C2.13602 10.7554 2.13602 11.479 2.59193 11.6399ZM8.59478 12.5243L17.4091 6.81544C17.561 6.73503 17.713 6.97625 17.561 7.05666L10.3424 14.2129C10.1145 14.4541 9.88652 14.7757 9.88652 15.1778L9.65857 17.1075C9.65857 17.3488 9.27864 17.4292 9.20266 17.1075L8.29082 13.5696C8.06287 13.1676 8.21486 12.6851 8.59478 12.5243Z" fill="#282830"/>
</svg>
