<svg width="102" height="28" viewBox="0 0 102 28" fill="none" xmlns="http://www.w3.org/2000/svg">
<path d="M80 13.0526H82.852V17.8616C82.852 19.0795 83.9349 20.0125 85.1395 19.8323C85.6967 19.749 86.2091 19.4792 86.5932 19.0671L96.4725 8.46614L92.5 6H100.85L101 8.40171L100.85 14.0526L98.5 10.4737L88.6896 21.0751C87.554 22.3023 85.9578 23 84.2858 23C81.9188 23 80 21.0812 80 18.7142V13.0526Z" fill="#E75325"/>
<path d="M102 5H91.4583H91L102 16V5Z" fill="#E75325"/>
<path d="M0 23H3.95114L4.97252 20.7247H15.1595L16.2346 23H20.1858L11.7997 5H8.33233L0 23ZM6.45084 17.4382L10.0794 9.34831L13.708 17.4382H6.45084Z" fill="#282830"/>
<path d="M22.1397 23H37.1648V19.6376H25.7414V5H22.1397V23Z" fill="#282830"/>
<path d="M40.0412 23H55.12V19.6376H43.6429V15.618H51.9484V12.2809H43.6429V8.38764H55.12V5H40.0412V23Z" fill="#282830"/>
<path d="M56.8356 23H61.3781L66.4044 16.7556L71.4575 23H76L68.689 13.9747L75.9462 5H71.4038L66.4044 11.1938L61.4319 5H56.8894L64.1466 13.9747L56.8356 23Z" fill="#282830"/>
</svg>
