<svg width="24" height="24" viewBox="0 0 24 24" fill="none" xmlns="http://www.w3.org/2000/svg">
<g clip-path="url(#clip0_543_1395)">
<path fill-rule="evenodd" clip-rule="evenodd" d="M11.9978 20.2263C13.5014 20.2298 14.882 20.1919 16.2232 20.1104C17.1754 20.0525 18.0009 19.7435 18.6772 19.192C19.3024 18.6821 19.7329 17.9787 19.9568 17.1013C20.1788 16.2314 20.1916 15.2974 20.2039 14.3942C20.2136 13.6871 20.2237 12.8495 20.2258 12C20.2237 11.1503 20.2136 10.3129 20.2039 9.60578C20.1916 8.70258 20.1788 7.76858 19.9568 6.89855C19.7329 6.02108 19.3024 5.31768 18.6772 4.80784C18.0009 4.25648 17.1754 3.94748 16.2232 3.88961C14.882 3.80793 13.5014 3.77029 12.0013 3.77356C10.498 3.76999 9.11722 3.80793 7.77603 3.88961C6.82388 3.94748 5.99834 4.25648 5.32202 4.80784C4.69687 5.31768 4.26632 6.02108 4.04242 6.89855C3.82045 7.76858 3.80766 8.70243 3.79531 9.60578C3.78564 10.3135 3.77552 11.1515 3.77344 12.0018C3.77552 12.8483 3.78564 13.6865 3.79531 14.3942C3.80766 15.2974 3.82045 16.2314 4.04242 17.1013C4.26632 17.9787 4.69687 18.6821 5.32202 19.192C5.99834 19.7433 6.82388 20.0523 7.77603 20.1102C9.11722 20.1919 10.4983 20.23 11.9978 20.2263ZM7.20073 12C7.20073 14.6251 9.33651 16.7607 11.9615 16.7607C14.5866 16.7607 16.7222 14.6251 16.7222 12C16.7222 9.37488 14.5866 7.23924 11.9615 7.23924C9.33651 7.23924 7.20073 9.37488 7.20073 12ZM16.1128 6.85838C16.1128 6.22728 16.6245 5.7158 17.2554 5.7158C17.8865 5.7158 18.398 6.22728 18.398 6.85838C18.398 7.48948 17.8865 8.00096 17.2554 8.00096C16.6245 8.00096 16.1128 7.48948 16.1128 6.85838Z" fill="#282830"/>
<path fill-rule="evenodd" clip-rule="evenodd" d="M12.1919 21.75C12.1273 21.75 12.0628 21.75 11.9978 21.7497C10.4693 21.7534 9.05697 21.7146 7.68349 21.631C6.42428 21.5544 5.27486 21.1192 4.35931 20.3727C3.47589 19.6523 2.87262 18.6783 2.56629 17.478C2.29969 16.433 2.28556 15.4072 2.27202 14.415C2.2622 13.7031 2.25208 12.8596 2.25 12.0018C2.25208 11.1404 2.2622 10.2968 2.27202 9.58495C2.28556 8.59293 2.29969 7.56714 2.56629 6.522C2.87262 5.3217 3.47589 4.34768 4.35931 3.62732C5.27486 2.88077 6.42428 2.44561 7.68364 2.36899C9.05712 2.28553 10.4697 2.24655 12.0015 2.25027C13.5304 2.247 14.9423 2.28553 16.3158 2.36899C17.575 2.44561 18.7244 2.88077 19.6399 3.62732C20.5235 4.34768 21.1266 5.3217 21.433 6.522C21.6996 7.56699 21.7137 8.59293 21.7272 9.58495C21.7371 10.2968 21.7473 11.1404 21.7493 11.9982V12.0018C21.7473 12.8596 21.7371 13.7031 21.7272 14.415C21.7137 15.407 21.6997 16.4328 21.433 17.478C21.1266 18.6783 20.5235 19.6523 19.6399 20.3727C18.7244 21.1192 17.575 21.5544 16.3158 21.631C15.0005 21.711 13.6493 21.75 12.1919 21.75ZM11.9978 20.2263C13.5014 20.2298 14.882 20.1919 16.2232 20.1104C17.1754 20.0525 18.0009 19.7435 18.6772 19.192C19.3024 18.6821 19.7329 17.9787 19.9568 17.1013C20.1788 16.2314 20.1916 15.2974 20.2039 14.3942C20.2136 13.6871 20.2237 12.8495 20.2258 12C20.2237 11.1503 20.2136 10.3129 20.2039 9.60578C20.1916 8.70258 20.1788 7.76858 19.9568 6.89855C19.7329 6.02108 19.3024 5.31768 18.6772 4.80784C18.0009 4.25648 17.1754 3.94748 16.2232 3.88961C14.882 3.80793 13.5014 3.77029 12.0013 3.77356C10.498 3.76999 9.11722 3.80793 7.77603 3.88961C6.82388 3.94748 5.99834 4.25648 5.32202 4.80784C4.69687 5.31768 4.26632 6.02108 4.04242 6.89855C3.82045 7.76858 3.80766 8.70243 3.79531 9.60578C3.78564 10.3135 3.77552 11.1515 3.77344 12.0018C3.77552 12.8483 3.78564 13.6865 3.79531 14.3942C3.80766 15.2974 3.82045 16.2314 4.04242 17.1013C4.26632 17.9787 4.69687 18.6821 5.32202 19.192C5.99834 19.7433 6.82388 20.0523 7.77603 20.1102C9.11722 20.1919 10.4983 20.23 11.9978 20.2263Z" fill="#282830"/>
</g>
<defs>
<clipPath id="clip0_543_1395">
<rect width="19.5" height="19.5" fill="white" transform="translate(2.25 2.25)"/>
</clipPath>
</defs>
</svg>
