<svg width="24" height="24" viewBox="0 0 24 24" fill="none" xmlns="http://www.w3.org/2000/svg">
<path d="M21.7496 11.4105C21.7256 13.9261 21.0735 15.8942 19.7173 17.6044C18.261 19.4415 16.3647 20.6081 14.0443 21.0803C12.252 21.4414 10.5077 21.2827 8.79541 20.6676C8.41534 20.5288 8.04328 20.3661 7.68722 20.1716C7.5792 20.1121 7.48718 20.1042 7.36716 20.1439C5.74689 20.6637 4.12261 21.1795 2.49833 21.6914C2.42632 21.7152 2.3303 21.7826 2.27429 21.731C2.21028 21.6676 2.2903 21.5723 2.3143 21.4969C2.63836 20.5407 2.96241 19.5804 3.29047 18.6242C3.4905 18.0409 3.68253 17.4615 3.89057 16.8822C3.94658 16.7314 3.92658 16.6164 3.84256 16.4775C3.43049 15.7791 3.12644 15.0332 2.9104 14.2515C2.50633 12.7834 2.46233 11.2993 2.77838 9.81534C3.12244 8.19643 3.84256 6.7521 4.95075 5.50617C6.29098 3.99835 7.94326 3.0024 9.9076 2.52228C11.1598 2.21675 12.424 2.16914 13.6962 2.37547C15.3605 2.64529 16.8608 3.3 18.169 4.35547C19.5292 5.45458 20.5214 6.81955 21.1455 8.45831C21.4896 9.34316 21.7616 10.7915 21.7496 11.4105ZM4.71471 19.3344C5.70688 19.017 6.65504 18.7154 7.5952 18.4099C7.71922 18.3702 7.81924 18.3781 7.92726 18.4496C8.28732 18.6876 8.67539 18.8781 9.07545 19.0448C10.3757 19.5923 11.7279 19.7907 13.1241 19.6122C14.8364 19.3939 16.3407 18.7114 17.6049 17.525C19.1972 16.0291 20.0493 14.1959 20.1253 12.0294C20.1974 9.9066 19.5092 8.04168 18.073 6.45847C16.7088 4.95463 14.9965 4.09755 12.9761 3.88328C11.2198 3.69679 9.57554 4.07374 8.05528 4.97843C6.75506 5.75615 5.75889 6.81559 5.06677 8.15278C4.30264 9.62488 4.0426 11.1882 4.26263 12.827C4.42666 14.065 4.87474 15.2038 5.59486 16.2275C5.67487 16.3426 5.69888 16.4378 5.65087 16.5727C5.50284 16.9775 5.37082 17.3862 5.2308 17.7909C5.06277 18.2908 4.89874 18.7908 4.71471 19.3344Z" fill="#282830"/>
<path d="M4.71471 19.3344C5.70688 19.017 6.65504 18.7154 7.5952 18.4099C7.71922 18.3702 7.81924 18.3781 7.92726 18.4496C8.28732 18.6876 8.67539 18.8781 9.07545 19.0448C10.3757 19.5923 11.7279 19.7907 13.1241 19.6122C14.8364 19.3939 16.3407 18.7114 17.6049 17.525C19.1972 16.0291 20.0493 14.1959 20.1253 12.0294C20.1974 9.9066 19.5092 8.04168 18.073 6.45847C16.7088 4.95463 14.9965 4.09755 12.9761 3.88328C11.2198 3.69679 9.57554 4.07374 8.05528 4.97843C6.75506 5.75615 5.75889 6.81559 5.06677 8.15278C4.30264 9.62488 4.0426 11.1882 4.26263 12.827C4.42666 14.065 4.87474 15.2038 5.59486 16.2275C5.67487 16.3426 5.69888 16.4378 5.65087 16.5727C5.50284 16.9775 5.37082 17.3862 5.2308 17.7909C5.06277 18.2908 4.89874 18.7908 4.71471 19.3344Z" fill="#282830"/>
<path d="M7.37121 9.54152C7.39121 8.59715 7.72727 7.89483 8.36338 7.33535C8.56741 7.15282 8.81946 7.07346 9.10351 7.11314C9.22353 7.12902 9.34355 7.14092 9.46357 7.13298C9.68761 7.12108 9.83963 7.22821 9.91564 7.42264C10.1837 8.11306 10.4437 8.80348 10.7038 9.49787C10.7918 9.73594 10.6398 9.92244 10.5117 10.0931C10.3637 10.2954 10.1837 10.474 10.0077 10.6525C9.82763 10.8351 9.80362 10.9382 9.92765 11.1604C10.6518 12.4659 11.6679 13.4698 13.0482 14.0888C13.0962 14.1086 13.1442 14.1364 13.1922 14.1602C13.3762 14.2435 13.5403 14.2237 13.6803 14.065C13.9363 13.7674 14.2164 13.4936 14.4524 13.1801C14.6084 12.9738 14.7165 12.9381 14.9525 13.0412C15.6566 13.3428 16.3167 13.7237 16.9889 14.0927C17.1129 14.1602 17.1569 14.2634 17.1529 14.4062C17.1169 15.5767 16.4408 16.1878 15.2526 16.4576C14.6765 16.5886 14.1444 16.4457 13.6163 16.2553C12.5081 15.8585 11.4399 15.3902 10.5438 14.6046C9.83163 13.9777 9.20352 13.2793 8.67143 12.4976C8.26336 11.8945 7.83929 11.3033 7.60325 10.601C7.46723 10.228 7.36721 9.84705 7.37121 9.54152Z" fill="white"/>
</svg>
